<svg width="8" height="9" viewBox="0 0 8 9" fill="none" xmlns="http://www.w3.org/2000/svg">
<path d="M7.67925 5.27028C7.57781 5.3718 7.45726 5.45236 7.32451 5.50733C7.19176 5.56229 7.04943 5.59059 6.90568 5.59059C6.76193 5.59059 6.61959 5.56229 6.48684 5.50733C6.35409 5.45236 6.23354 5.3718 6.1321 5.27028L5.08121 4.22426V7.40888C5.08121 7.69826 4.96588 7.97579 4.76058 8.18042C4.55529 8.38504 4.27685 8.5 3.98653 8.5C3.6962 8.5 3.41776 8.38504 3.21247 8.18042C3.00718 7.97579 2.89185 7.69826 2.89185 7.40888V4.22426L1.84095 5.27028C1.63344 5.46302 1.35897 5.56794 1.07537 5.56296C0.791774 5.55797 0.521191 5.44345 0.320626 5.24354C0.120061 5.04363 0.00517429 4.77393 0.000170545 4.49125C-0.00483319 4.20858 0.100437 3.935 0.293802 3.72816L3.21295 0.818503C3.41839 0.614527 3.69655 0.5 3.98653 0.5C4.2765 0.5 4.55466 0.614527 4.7601 0.818503L7.67925 3.72816C7.78093 3.82937 7.8616 3.94956 7.91664 4.08186C7.97167 4.21417 8 4.35599 8 4.49922C8 4.64245 7.97167 4.78427 7.91664 4.91658C7.8616 5.04888 7.78093 5.16907 7.67925 5.27028Z" fill="#20252B"/>
</svg>
