<svg width="28" height="32" viewBox="0 0 28 32" fill="none" xmlns="http://www.w3.org/2000/svg">
<path d="M14 32C16.5354 32 18.6563 30.2037 19.1433 27.8261H8.85665C9.34394 30.2037 11.4648 32 14 32Z" fill="#969BA0"/>
<path d="M23.8163 13.9117C23.8106 13.9117 23.805 13.913 23.7994 13.913C23.7994 12.4439 23.7573 11.0446 23.6355 9.73907C23.6355 4.36 18.9832 0 14 0C8.58803 0 4.20063 4.36015 4.20063 9.73907V13.618C4.20063 16.3714 2.9869 18.9704 0.857537 20.7596C0.147751 21.3621 -0.167283 22.322 0.0875123 23.2585C0.384346 24.3478 1.46787 25.0435 2.6047 25.0435H25.3884C26.5811 25.0435 27.7054 24.2755 27.9473 23.1138C28.135 22.215 27.813 21.3175 27.1117 20.7318C25.0762 19.0359 23.8988 16.5439 23.8163 13.9117Z" fill="#969BA0"/>
</svg>
