<svg width="22" height="24" viewBox="0 0 22 24" fill="none" xmlns="http://www.w3.org/2000/svg">
<path d="M3.69992 24C3.16659 24 2.69992 23.8 2.29992 23.4C1.89992 23 1.69992 22.5333 1.69992 22V3H1.33325C1.04436 3 0.805474 2.90556 0.616585 2.71667C0.427697 2.52778 0.333252 2.28889 0.333252 2C0.333252 1.71111 0.427697 1.47222 0.616585 1.28333C0.805474 1.09444 1.04436 1 1.33325 1H6.59992C6.59992 0.711111 6.69436 0.472222 6.88325 0.283333C7.07214 0.0944446 7.31103 0 7.59992 0H14.3999C14.6888 0 14.9277 0.0944446 15.1166 0.283333C15.3055 0.472222 15.3999 0.711111 15.3999 1H20.6666C20.9555 1 21.1944 1.09444 21.3833 1.28333C21.5721 1.47222 21.6666 1.71111 21.6666 2C21.6666 2.28889 21.5721 2.52778 21.3833 2.71667C21.1944 2.90556 20.9555 3 20.6666 3H20.2999V22C20.2999 22.5333 20.0999 23 19.6999 23.4C19.2999 23.8 18.8333 24 18.2999 24H3.69992ZM7.23325 18.1333C7.23325 18.4222 7.3277 18.6611 7.51659 18.85C7.70547 19.0389 7.94436 19.1333 8.23325 19.1333C8.52214 19.1333 8.76103 19.0389 8.94992 18.85C9.13881 18.6611 9.23325 18.4222 9.23325 18.1333V6.83333C9.23325 6.54444 9.13881 6.30556 8.94992 6.11667C8.76103 5.92778 8.52214 5.83333 8.23325 5.83333C7.94436 5.83333 7.70547 5.92778 7.51659 6.11667C7.3277 6.30556 7.23325 6.54444 7.23325 6.83333V18.1333ZM12.7666 18.1333C12.7666 18.4222 12.861 18.6611 13.0499 18.85C13.2388 19.0389 13.4777 19.1333 13.7666 19.1333C14.0555 19.1333 14.2944 19.0389 14.4833 18.85C14.6721 18.6611 14.7666 18.4222 14.7666 18.1333V6.83333C14.7666 6.54444 14.6721 6.30556 14.4833 6.11667C14.2944 5.92778 14.0555 5.83333 13.7666 5.83333C13.4777 5.83333 13.2388 5.92778 13.0499 6.11667C12.861 6.30556 12.7666 6.54444 12.7666 6.83333V18.1333Z" fill="#969BA0"/>
</svg>
