<svg width="14" height="24" viewBox="0 0 14 24" fill="none" xmlns="http://www.w3.org/2000/svg">
<path d="M8.62035 23.9531H4.76944C4.12622 23.9531 3.60298 23.4309 3.60298 22.7889V14.12H1.35628C0.713058 14.12 0.189819 13.5976 0.189819 12.9558V9.24115C0.189819 8.59918 0.713058 8.07697 1.35628 8.07697H3.60298V6.2168C3.60298 4.37238 4.18328 2.80316 5.28094 1.67908C6.38356 0.549866 7.92447 -0.046875 9.73709 -0.046875L12.674 -0.0421143C13.3161 -0.0410156 13.8384 0.481201 13.8384 1.12207V4.57105C13.8384 5.21301 13.3154 5.73523 12.6723 5.73523L10.695 5.73596C10.0919 5.73596 9.93835 5.85663 9.90551 5.89362C9.85139 5.95496 9.78699 6.12836 9.78699 6.60718V8.07678H12.5237C12.7298 8.07678 12.9294 8.1275 13.1009 8.22308C13.4709 8.42944 13.701 8.81964 13.701 9.24133L13.6995 12.956C13.6995 13.5976 13.1763 14.1198 12.5331 14.1198H9.78699V22.7889C9.78699 23.4309 9.26357 23.9531 8.62035 23.9531ZM5.01272 22.5461H8.37707V13.4901C8.37707 13.0615 8.72657 12.7128 9.15588 12.7128H12.2898L12.2911 9.48395H9.15569C8.72639 9.48395 8.37707 9.13532 8.37707 8.70667V6.60718C8.37707 6.0575 8.43303 5.43237 8.84876 4.96253C9.35108 4.39453 10.1427 4.32898 10.6946 4.32898L12.4287 4.32825V1.3645L9.73599 1.36011C6.82295 1.36011 5.01272 3.22119 5.01272 6.2168V8.70667C5.01272 9.13513 4.6634 9.48395 4.2341 9.48395H1.59956V12.7128H4.2341C4.6634 12.7128 5.01272 13.0615 5.01272 13.4901V22.5461ZM12.6712 1.36487H12.6714H12.6712Z" fill="white"/>
</svg>
