<svg width="26" height="26" viewBox="0 0 26 26" fill="none" xmlns="http://www.w3.org/2000/svg">
<rect x="2.5" y="2.5" width="21" height="21" rx="10.5" fill="#22DBBA"/>
<path d="M14.93 10.92H11.69V12.63C11.83 12.4567 12.03 12.3167 12.29 12.21C12.55 12.0967 12.8267 12.04 13.12 12.04C13.6533 12.04 14.09 12.1567 14.43 12.39C14.77 12.6233 15.0167 12.9233 15.17 13.29C15.3233 13.65 15.4 14.0367 15.4 14.45C15.4 15.2167 15.18 15.8333 14.74 16.3C14.3067 16.7667 13.6867 17 12.88 17C12.12 17 11.5133 16.81 11.06 16.43C10.6067 16.05 10.35 15.5533 10.29 14.94H11.65C11.71 15.2067 11.8433 15.42 12.05 15.58C12.2633 15.74 12.5333 15.82 12.86 15.82C13.2533 15.82 13.55 15.6967 13.75 15.45C13.95 15.2033 14.05 14.8767 14.05 14.47C14.05 14.0567 13.9467 13.7433 13.74 13.53C13.54 13.31 13.2433 13.2 12.85 13.2C12.57 13.2 12.3367 13.27 12.15 13.41C11.9633 13.55 11.83 13.7367 11.75 13.97H10.41V9.69H14.93V10.92Z" fill="#24292E"/>
<rect x="2.5" y="2.5" width="21" height="21" rx="10.5" stroke="#24292E" stroke-width="5"/>
</svg>
