<svg width="24" height="24" viewBox="0 0 24 24" fill="none" xmlns="http://www.w3.org/2000/svg">
<path d="M17.9999 0H6.00022C2.70059 0 0.000366211 2.70023 0.000366211 5.99985V18.0001C0.000366211 21.2989 2.70059 24 6.00022 24H17.9999C21.2996 24 23.9998 21.2989 23.9998 18.0001V5.99985C23.9998 2.70023 21.2996 0 17.9999 0ZM21.9997 18.0001C21.9997 20.2051 20.2061 22 17.9999 22H6.00022C3.79498 22 2.00041 20.2051 2.00041 18.0001V5.99985C2.00041 3.79432 3.79498 2.00005 6.00022 2.00005H17.9999C20.2061 2.00005 21.9997 3.79432 21.9997 5.99985V18.0001Z" fill="white"/>
</svg>
