<svg width="24" height="22" viewBox="0 0 24 22" fill="none" xmlns="http://www.w3.org/2000/svg">
<path d="M23.894 4.13424C23.7521 3.90343 23.4924 3.7726 23.2221 3.79604L22.0254 3.90029L23.1693 1.59436C23.3055 1.31972 23.2517 0.988829 23.0355 0.771469C22.8193 0.554109 22.4887 0.498703 22.2134 0.633516L19.1859 2.11622C17.3154 1.12875 14.9786 1.42186 13.3705 2.88666C12.0285 4.10916 11.3231 5.98918 11.4546 7.864C7.94701 7.51244 4.97794 5.50473 3.22228 2.26069C3.10579 2.04549 2.8874 1.90472 2.64332 1.88742C2.39878 1.87041 2.16318 1.97878 2.01759 2.17552C0.92868 3.64655 0.852274 5.6635 1.70592 7.32283C1.4706 7.26339 1.2202 7.18295 0.942508 7.09019C0.704617 7.01064 0.442351 7.06159 0.251429 7.22434C0.0605067 7.38709 -0.0312747 7.63792 0.00955352 7.88547C0.347335 9.93335 1.54153 11.5072 3.42797 12.4388C3.18234 12.5244 2.9317 12.5938 2.67684 12.6469C2.42362 12.6997 2.21859 12.885 2.14054 13.1316C2.06249 13.3782 2.12353 13.6477 2.30025 13.8365C3.65873 15.2886 5.62111 16.0033 7.01499 16.3462C5.43014 17.5873 3.71934 17.795 1.23337 17.7096C0.945602 17.7009 0.680477 17.863 0.559492 18.1239C0.438554 18.3848 0.485476 18.6928 0.678742 18.9058C1.71506 20.0481 5.49066 21.3361 9.45967 21.4327C9.61665 21.4365 9.77678 21.4386 9.94028 21.4386C12.727 21.4385 16.4101 20.8411 19.0537 18.1975C21.0546 16.1966 22.3062 13.8931 22.7735 11.3513C23.1509 9.29828 22.9124 7.65428 22.7978 6.86415C22.7893 6.80608 22.7803 6.74443 22.773 6.69053L23.8925 4.88631C24.0352 4.65615 24.0359 4.36505 23.894 4.13424ZM21.3812 7.06965C21.5936 8.53328 22.2397 12.9872 18.0416 17.1853C15.6012 19.6256 12.0468 20.0638 9.49445 20.0018C7.31658 19.9488 5.36855 19.5323 3.95667 19.0573C4.52991 18.9869 5.04075 18.8785 5.52295 18.7286C6.85229 18.3154 7.97532 17.5719 9.0571 16.3888C9.23743 16.1916 9.29284 15.9105 9.20092 15.6596C9.10899 15.4087 8.88493 15.23 8.6199 15.196C7.93744 15.1085 5.88685 14.7634 4.27209 13.6495C4.73742 13.4592 5.1862 13.221 5.61474 12.9368C5.84981 12.7808 5.97141 12.5013 5.9251 12.223C5.87883 11.9448 5.67347 11.7195 5.40056 11.648C4.07892 11.3015 2.48386 10.5262 1.74834 8.79541C2.21803 8.87772 2.72873 8.89764 3.27342 8.77553C3.52589 8.719 3.7282 8.53056 3.80245 8.28269C3.87675 8.03481 3.8115 7.76612 3.63178 7.58003C2.71659 6.63212 2.37435 5.26609 2.66798 4.09716C3.62958 5.50253 4.84781 6.68528 6.24357 7.55973C8.02909 8.67841 10.1131 9.29664 12.2703 9.34741C12.4898 9.35205 12.7004 9.25624 12.8402 9.08617C12.9798 8.91616 13.0336 8.6913 12.9858 8.47647C12.6146 6.80795 13.144 5.02923 14.3344 3.94487C15.5691 2.8201 17.3939 2.64947 18.7719 3.53021C18.9823 3.66469 19.2478 3.67974 19.4721 3.56987L20.9506 2.84574L20.1768 4.40579C20.0618 4.63759 20.0809 4.9134 20.2267 5.1271C20.3725 5.34081 20.6219 5.45945 20.88 5.43681L21.9226 5.34601L21.4423 6.12015C21.2811 6.37998 21.3146 6.61051 21.3812 7.06965Z" fill="white"/>
</svg>
