<svg width="24" height="24" viewBox="0 0 24 24" fill="none" xmlns="http://www.w3.org/2000/svg">
<path d="M12 0C9.62663 0 7.30655 0.703787 5.33316 2.02236C3.35977 3.34094 1.8217 5.21508 0.913451 7.4078C0.00519953 9.60051 -0.232441 12.0133 0.230582 14.3411C0.693604 16.6688 1.83649 18.807 3.51472 20.4853C5.19295 22.1635 7.33115 23.3064 9.65892 23.7694C11.9867 24.2324 14.3995 23.9948 16.5922 23.0865C18.7849 22.1783 20.6591 20.6402 21.9776 18.6668C23.2962 16.6934 24 14.3734 24 12C23.9964 8.8185 22.731 5.76835 20.4813 3.51869C18.2316 1.26904 15.1815 0.00359958 12 0ZM12 22.4C10.348 22.4 8.6184 20.2704 7.76 16.8H16.24C15.3816 20.2704 13.652 22.4 12 22.4ZM7.4352 15.2C7.1216 13.0782 7.1216 10.9218 7.4352 8.8H16.5648C16.7235 9.85924 16.8021 10.9289 16.8 12C16.8021 13.0711 16.7235 14.1407 16.5648 15.2H7.4352ZM1.6 12C1.60058 10.9132 1.77229 9.83334 2.1088 8.8H5.8288C5.52374 10.9224 5.52374 13.0776 5.8288 15.2H2.1088C1.77229 14.1666 1.60058 13.0868 1.6 12ZM12 1.6C13.652 1.6 15.3816 3.7296 16.24 7.2H7.76C8.6184 3.7296 10.348 1.6 12 1.6ZM18.1712 8.8H21.8912C22.5694 10.8794 22.5694 13.1206 21.8912 15.2H18.1712C18.3229 14.1401 18.3994 13.0707 18.4 12C18.3994 10.9293 18.3229 9.85993 18.1712 8.8ZM21.2168 7.2H17.8832C17.5272 5.46001 16.8291 3.80806 15.8296 2.34C18.1481 3.26464 20.0591 4.98861 21.2168 7.2ZM8.1704 2.34C7.17086 3.80806 6.47282 5.46001 6.1168 7.2H2.7832C3.9409 4.98861 5.85189 3.26464 8.1704 2.34ZM2.7832 16.8H6.1168C6.47282 18.54 7.17086 20.1919 8.1704 21.66C5.85189 20.7353 3.9409 19.0114 2.7832 16.8ZM15.8296 21.66C16.8291 20.1919 17.5272 18.54 17.8832 16.8H21.2168C20.0591 19.0114 18.1481 20.7353 15.8296 21.66Z" fill="white"/>
</svg>
